<svg xmlns="http://www.w3.org/2000/svg" width="18" height="18" viewBox="0 0 18 18">
  <g id="i_id" transform="translate(-206.426 -721.554)">
    <g id="Layer_1" data-name="Layer 1">
      <g id="그룹_485" data-name="그룹 485">
        <rect id="사각형_1311" data-name="사각형 1311" width="18" height="18" transform="translate(206.426 721.554)" fill="#ff3ed2" opacity="0"/>
      </g>
    </g>
    <g id="Layer_2" data-name="Layer 2">
      <g id="그룹_486" data-name="그룹 486">
        <path id="패스_1076" data-name="패스 1076" d="M215.426,731.241a4.469,4.469,0,1,0-4.469-4.469A4.474,4.474,0,0,0,215.426,731.241Zm-3.031-4.469a3.031,3.031,0,1,1,3.031,3.032A3.034,3.034,0,0,1,212.4,726.772Z" fill="#999"/>
        <path id="패스_1077" data-name="패스 1077" d="M220.853,733.571a6.266,6.266,0,0,0-4.49-1.892h-1.875A6.262,6.262,0,0,0,210,733.571a6.4,6.4,0,0,0-1.854,4.514.72.72,0,0,0,.718.719h13.125a.72.72,0,0,0,.719-.719A6.4,6.4,0,0,0,220.853,733.571Zm.365,3.8H209.633a4.964,4.964,0,0,1,4.855-4.25h1.875A4.963,4.963,0,0,1,221.218,737.366Z" fill="#999"/>
      </g>
    </g>
  </g>
</svg>
