<svg xmlns="http://www.w3.org/2000/svg" width="18" height="18" viewBox="0 0 18 18">
  <g id="i_pw" transform="translate(-194.333 -754.349)">
    <g id="Layer_1" data-name="Layer 1">
      <g id="그룹_488" data-name="그룹 488">
        <rect id="사각형_1312" data-name="사각형 1312" width="18" height="18" transform="translate(194.333 754.349)" fill="#ff3ed2" opacity="0"/>
      </g>
    </g>
    <g id="Layer_2" data-name="Layer 2">
      <g id="그룹_489" data-name="그룹 489">
        <path id="패스_1078" data-name="패스 1078" d="M208.346,761.433h-.588V759.78a4.428,4.428,0,1,0-8.856,0v1.652h-.584a1.05,1.05,0,0,0-1.048,1.049V770.3a1.049,1.049,0,0,0,1.048,1.048h10.031A1.049,1.049,0,0,0,209.4,770.3v-7.823a1.053,1.053,0,0,0-1.051-1.045Zm-8.111-1.656a3.1,3.1,0,0,1,6.191,0v1.649h-6.191Zm7.823,10.24H198.6v-7.252h9.459v7.252Zm0,0" fill="#999"/>
        <path id="패스_1079" data-name="패스 1079" d="M203.33,769.021a.664.664,0,0,0,.666-.666v-1.718a.666.666,0,1,0-1.332,0v1.718a.666.666,0,0,0,.666.666Zm0,0" transform="translate(0 -1)" fill="#999"/>
      </g>
    </g>
  </g>
</svg>
