<svg xmlns="http://www.w3.org/2000/svg" xmlns:xlink="http://www.w3.org/1999/xlink" width="20" height="20" viewBox="0 0 20 20">
  <defs>
    <clipPath id="clip-path">
      <rect id="사각형_9678" data-name="사각형 9678" width="20" height="20" transform="translate(419 318)" fill="#fff" stroke="#707070" stroke-width="1"/>
    </clipPath>
  </defs>
  <g id="i_question" transform="translate(-419 -318)" clip-path="url(#clip-path)">
    <path id="i_question-2" data-name="i_question" d="M12.142-1.661a8.692,8.692,0,0,1-2.735.381A7.825,7.825,0,0,1,3.914-3.265Q1.282-5.654,1.282-10.282q0-4.663,2.7-7.052a7.972,7.972,0,0,1,5.482-1.95A7.862,7.862,0,0,1,15-17.218a8.646,8.646,0,0,1,2.585,6.682,11.317,11.317,0,0,1-.554,3.809,6.345,6.345,0,0,1-1.327,2.435l1.962,1.835L15.813-.518,13.758-2.457A8.562,8.562,0,0,1,12.142-1.661Zm-.762-3.07L9.661-6.37,11.5-8.285l1.72,1.639A8.036,8.036,0,0,0,13.781-8.1a8.368,8.368,0,0,0,.254-2.181,7.265,7.265,0,0,0-1.171-4.426,4.01,4.01,0,0,0-3.422-1.564,4.173,4.173,0,0,0-3.37,1.5,6.853,6.853,0,0,0-1.258,4.49q0,3.5,1.8,5.009a4.2,4.2,0,0,0,2.793.981,4.571,4.571,0,0,0,1.177-.15A5.86,5.86,0,0,0,11.381-4.731Z" transform="translate(419.524 337.901)" fill="#1c1c1c"/>
  </g>
</svg>
