<svg xmlns="http://www.w3.org/2000/svg" width="67" height="67" viewBox="0 0 67 67">
  <g id="logo" transform="translate(-169.339 -92.867)">
    <path id="패스_91872" data-name="패스 91872" d="M57.488,15.129c-1.04,1.224-2.038,2.486-3.056,3.784-.8,1.037-1.591,2.1-2.368,3.159-.814,1.1-1.617,2.2-2.4,3.324-.1.14-.189.279-.277.412V48.652a6.248,6.248,0,0,1-6.267,6.229H16.271a6.246,6.246,0,0,1-6.256-6.229V21.983a6.243,6.243,0,0,1,6.256-6.225h22.6c1.7-1.956,3.248-3.651,4.71-5.155,1.569-1.611,3.2-3.177,4.991-4.8H9.452A9.424,9.424,0,0,0,0,15.195V55.436a9.422,9.422,0,0,0,9.452,9.395H49.944A9.424,9.424,0,0,0,59.4,55.436V15.195a9.465,9.465,0,0,0-.233-2.033c-.525.618-1.08,1.261-1.676,1.967" transform="translate(169.339 95.037)" fill="#da3931"/>
    <path id="패스_91873" data-name="패스 91873" d="M55.795,3.942c-.462-.077-.932-.14-1.41-.206l-.577-.074a2.332,2.332,0,0,0-1.8.479c-.581.442-1.173.876-1.757,1.307-1.243.928-2.527,1.878-3.774,2.865-1.887,1.514-3.707,3.053-5.405,4.592-1.868,1.69-3.552,3.307-5.135,4.942-1.546,1.595-3.182,3.384-4.987,5.483-1.421,1.646-2.667,3.193-3.8,4.743-1.476,2-2.882,4.047-4.2,6.072-.892,1.385-1.735,2.817-2.549,4.2-.111.188-.211.368-.318.556-.625-.913-1.258-1.834-1.9-2.732a16.334,16.334,0,0,0-2.738-3.064,4.615,4.615,0,0,0-2.782-1.215A7.416,7.416,0,0,0,8.61,32.96a12.046,12.046,0,0,0-2.9,2.25c-.5.519-.94,1.068-1.365,1.587l-.5.611a1.927,1.927,0,0,0-.289,2.033c.078.2.159.383.229.574.1.225.178.449.27.648a1.927,1.927,0,0,0,1.236,1.083,12.334,12.334,0,0,1,2.568,1.046,11.621,11.621,0,0,1,3.126,2.519,12.894,12.894,0,0,1,1.942,2.813c.388.784.725,1.587,1.091,2.445.237.571.477,1.138.736,1.705.448,1,.91,1.985,1.38,2.975l.622,1.333a1.6,1.6,0,0,0,1.028.814,1.3,1.3,0,0,0,.4.055,1.675,1.675,0,0,0,.925-.28,2.8,2.8,0,0,0,.244-.18l3.056-2.53c1.006-.829,2.009-1.657,3.023-2.471a5.493,5.493,0,0,0,1.62-2.114c.8-1.779,1.72-3.554,2.527-5.075.588-1.108,1.258-2.232,1.9-3.325l.229-.387q1.032-1.751,2.105-3.462,1.188-1.9,2.434-3.76c.844-1.282,1.709-2.556,2.586-3.815.8-1.134,1.609-2.254,2.427-3.366.8-1.083,1.591-2.165,2.408-3.219,1.028-1.318,2.042-2.6,3.108-3.852,1.787-2.121,3.263-3.811,4.636-5.332a73.381,73.381,0,0,1,5.327-5.329,3.37,3.37,0,0,0,1.128-2.5,2.341,2.341,0,0,0-2.068-2.511" transform="translate(178.476 89.231)" fill="#da3931"/>
  </g>
</svg>
