<svg xmlns="http://www.w3.org/2000/svg" xmlns:xlink="http://www.w3.org/1999/xlink" width="260" height="28" viewBox="0 0 260 28">
  <defs>
    <clipPath id="clip-path">
      <rect id="사각형_5295" data-name="사각형 5295" width="260" height="28" transform="translate(19.818 14)" fill="#fff"/>
    </clipPath>
  </defs>
  <g id="logo_header" transform="translate(-19.818 -14)" clip-path="url(#clip-path)">
    <g id="그룹_13334" data-name="그룹 13334" transform="translate(20 14)">
      <path id="패스_91874" data-name="패스 91874" d="M23.338,9.615c-.422.5-.828,1.017-1.241,1.547-.326.424-.646.86-.961,1.292-.33.45-.656.9-.975,1.359-.039.057-.077.114-.113.168v9.343A2.546,2.546,0,0,1,17.5,25.872H6.605a2.545,2.545,0,0,1-2.54-2.547V12.418a2.544,2.544,0,0,1,2.54-2.546h9.177c.689-.8,1.319-1.493,1.912-2.108.637-.659,1.3-1.3,2.026-1.964H3.837A3.84,3.84,0,0,0,0,9.642V26.1a3.839,3.839,0,0,0,3.837,3.842H20.275A3.84,3.84,0,0,0,24.113,26.1V9.642a3.9,3.9,0,0,0-.095-.832c-.213.253-.439.516-.68.8" transform="translate(0 -2.55)" fill="#da3931"/>
      <path id="패스_91875" data-name="패스 91875" d="M24.661,3.761c-.188-.032-.378-.057-.572-.084l-.234-.03a.943.943,0,0,0-.73.2c-.236.18-.476.357-.713.533-.5.378-1.026.766-1.532,1.168-.766.617-1.5,1.245-2.194,1.873-.758.689-1.442,1.349-2.085,2.016-.628.65-1.292,1.38-2.025,2.236-.577.671-1.083,1.3-1.542,1.934-.6.817-1.17,1.651-1.7,2.477-.362.565-.7,1.149-1.035,1.714-.045.077-.086.15-.129.227-.254-.372-.511-.748-.772-1.114a6.651,6.651,0,0,0-1.111-1.25,1.87,1.87,0,0,0-1.129-.5,3,3,0,0,0-1.646.436,4.893,4.893,0,0,0-1.179.918c-.2.212-.381.436-.554.647l-.2.249a.789.789,0,0,0-.117.829c.032.08.065.156.093.234s.072.183.11.264a.783.783,0,0,0,.5.442,4.994,4.994,0,0,1,1.042.427,4.722,4.722,0,0,1,1.269,1.027,5.26,5.26,0,0,1,.788,1.147c.158.32.294.647.443,1,.1.233.194.464.3.7.182.407.369.81.56,1.214l.252.544a.65.65,0,0,0,.418.332.527.527,0,0,0,.161.023.678.678,0,0,0,.375-.114,1.136,1.136,0,0,0,.1-.074L11.1,24.365c.409-.338.816-.676,1.227-1.008a2.239,2.239,0,0,0,.658-.862c.324-.725.7-1.449,1.026-2.07.239-.452.511-.91.772-1.356l.093-.158q.419-.714.855-1.412.482-.775.988-1.533c.342-.523.694-1.042,1.05-1.556.323-.463.653-.919.985-1.373s.646-.883.978-1.313c.418-.538.829-1.062,1.262-1.571.725-.865,1.325-1.554,1.882-2.175a29.861,29.861,0,0,1,2.163-2.173A1.377,1.377,0,0,0,25.5,4.785a.954.954,0,0,0-.84-1.024" transform="translate(1.699 -3.636)" fill="#da3931"/>
      <path id="패스_91876" data-name="패스 91876" d="M90.487,30.521a2.812,2.812,0,1,1-5.624,0v-16a2.812,2.812,0,1,1,5.624,0Z" transform="translate(93.285 -7.418)" fill="#da3931"/>
      <path id="패스_91877" data-name="패스 91877" d="M96.529,30.521a2.814,2.814,0,1,1-5.629,0v-16a2.814,2.814,0,1,1,5.629,0Z" transform="translate(101.004 -7.418)" fill="#da3931"/>
      <path id="패스_91878" data-name="패스 91878" d="M100.242,17.488a2.093,2.093,0,0,1-2.094,2.1h-9.91a2.093,2.093,0,0,1,0-4.186h9.91a2.1,2.1,0,0,1,2.094,2.089" transform="translate(94.936 -2.713)" fill="#da3931"/>
      <path id="패스_91879" data-name="패스 91879" d="M101.286,30.521a2.815,2.815,0,1,1-5.631,0v-16a2.815,2.815,0,1,1,5.631,0Z" transform="translate(107.083 -7.418)" fill="#da3931"/>
      <path id="패스_91880" data-name="패스 91880" d="M95.865,14.077a2.375,2.375,0,0,0,2.374,2.374h7.09a2.375,2.375,0,1,0,0-4.75h-7.09a2.376,2.376,0,0,0-2.374,2.376" transform="translate(107.357 -7.442)" fill="#da3931"/>
      <path id="패스_91881" data-name="패스 91881" d="M95.705,17.72a2.374,2.374,0,0,0,2.374,2.374h7.09a2.374,2.374,0,0,0,0-4.748h-7.09a2.374,2.374,0,0,0-2.374,2.374" transform="translate(107.152 -2.78)" fill="#da3931"/>
      <path id="패스_91882" data-name="패스 91882" d="M95.865,21.494a2.381,2.381,0,0,0,2.374,2.378h7.09a2.377,2.377,0,0,0,0-4.755h-7.09a2.377,2.377,0,0,0-2.374,2.376" transform="translate(107.357 2.046)" fill="#da3931"/>
      <path id="패스_91883" data-name="패스 91883" d="M129.61,28.765l-5.317-6.639,4.525-5.9a2.812,2.812,0,1,0-4.463-3.423l-3.685,4.809-1.932,2.515v-5.61a2.814,2.814,0,1,0-5.629,0v16a2.814,2.814,0,1,0,5.629,0V24.188l6.48,8.091a2.813,2.813,0,0,0,4.393-3.514" transform="translate(129.41 -7.42)" fill="#da3931"/>
      <path id="패스_91884" data-name="패스 91884" d="M91.217,25.776a2.644,2.644,0,0,0-1.707.621,5.54,5.54,0,0,1-3.965,1.668,5.61,5.61,0,0,1-5.61-5.542V22.5a5.585,5.585,0,0,1,.116-1.045.476.476,0,0,0,.009-.064c.014-.052.025-.107.039-.162s.02-.082.034-.125.025-.086.034-.13.032-.1.05-.155a.783.783,0,0,0,.039-.112c.02-.055.039-.112.061-.166a.8.8,0,0,1,.041-.091c.02-.057.048-.118.075-.175a5.584,5.584,0,0,1,9.077-1.639,2.649,2.649,0,0,0,3.739-3.726,10.87,10.87,0,0,0-18.329,5.319h0l0,.027c-.014.061-.027.118-.036.178-.025.127-.048.259-.071.385a1.238,1.238,0,0,0-.018.123c-.027.155-.043.31-.059.467v0a9.547,9.547,0,0,0-.068,1.174,11,11,0,0,0,.234,2.244h.032a10.873,10.873,0,0,0,18.324,5.294,2.679,2.679,0,0,0,.617-1.7,2.65,2.65,0,0,0-2.649-2.649" transform="translate(80.249 -7.418)" fill="#da3931"/>
      <path id="패스_91885" data-name="패스 91885" d="M119.112,25.776a2.638,2.638,0,0,0-1.7.621,5.534,5.534,0,0,1-3.967,1.668,5.616,5.616,0,0,1-5.61-5.542V22.5a5.993,5.993,0,0,1,.116-1.045l.014-.064c.011-.052.025-.107.039-.162s.018-.082.032-.125.027-.086.034-.13.032-.1.05-.155c.014-.032.025-.068.039-.112s.039-.112.061-.166c.011-.032.027-.059.039-.091.02-.057.048-.118.073-.175a5.62,5.62,0,0,1,5.114-3.3,5.55,5.55,0,0,1,3.967,1.666,2.651,2.651,0,0,0,4.359-2.03,2.62,2.62,0,0,0-.619-1.7,10.871,10.871,0,0,0-18.331,5.319l0,.027a1.292,1.292,0,0,0-.036.178c-.03.127-.052.259-.073.385-.007.043-.011.082-.016.123-.027.155-.048.31-.061.467l0,0a11.13,11.13,0,0,0,.168,3.419h.036a10.871,10.871,0,0,0,18.322,5.294,2.65,2.65,0,0,0-2.035-4.352" transform="translate(115.948 -7.418)" fill="#da3931"/>
      <path id="패스_91886" data-name="패스 91886" d="M40.254,11.7A10.818,10.818,0,1,0,51.067,22.516,10.82,10.82,0,0,0,40.254,11.7m0,16.353a5.534,5.534,0,1,1,5.533-5.535,5.536,5.536,0,0,1-5.533,5.535" transform="translate(22.424 -7.422)" fill="#da3931"/>
      <path id="패스_91887" data-name="패스 91887" d="M33.291,20.623l-8.1-8.1A2.812,2.812,0,0,0,21.214,16.5L32.533,27.82a2.791,2.791,0,0,0,.758.528Z" transform="translate(10.825 -7.436)" fill="#da3931"/>
      <path id="패스_91888" data-name="패스 91888" d="M23.588,20.623l8.1-8.1A2.812,2.812,0,0,1,35.667,16.5L24.344,27.82a2.746,2.746,0,0,1-.756.528Z" transform="translate(14.904 -7.436)" fill="#da3931"/>
      <path id="패스_91889" data-name="패스 91889" d="M23.588,14.623v12.17a2.813,2.813,0,1,0,5.626,0V14.623Z" transform="translate(14.904 -3.69)" fill="#da3931"/>
      <path id="패스_91890" data-name="패스 91890" d="M55.6,30.521a2.812,2.812,0,1,1-5.624,0v-16a2.812,2.812,0,1,1,5.624,0Z" transform="translate(48.678 -7.418)" fill="#da3931"/>
      <path id="패스_91891" data-name="패스 91891" d="M60.048,11.7H51.577v5.526h6.782a3.121,3.121,0,0,1,3.148,3.091v4.015a3.123,3.123,0,0,1-3.148,3.093H51.577v5.911h8.471a7.021,7.021,0,0,0,7.083-6.958v-7.72A7.021,7.021,0,0,0,60.048,11.7" transform="translate(50.734 -7.418)" fill="#da3931"/>
      <rect id="사각형_5291" data-name="사각형 5291" width="8.849" height="3.114" transform="translate(101.467 4.257)" fill="#da3931"/>
      <rect id="사각형_5292" data-name="사각형 5292" width="7.77" height="2.542" transform="translate(101.296 23.377)" fill="#da3931"/>
      <path id="패스_91892" data-name="패스 91892" d="M45.961,30.521a2.813,2.813,0,1,1-5.626,0v-16a2.813,2.813,0,1,1,5.626,0Z" transform="translate(36.357 -7.418)" fill="#da3931"/>
      <path id="패스_91893" data-name="패스 91893" d="M50.41,11.7H41.939v5.526h6.78a3.121,3.121,0,0,1,3.15,3.091v4.015a3.123,3.123,0,0,1-3.15,3.093h-6.78v5.911H50.41a7.023,7.023,0,0,0,7.083-6.958v-7.72A7.023,7.023,0,0,0,50.41,11.7" transform="translate(38.411 -7.418)" fill="#da3931"/>
      <rect id="사각형_5293" data-name="사각형 5293" width="8.851" height="3.114" transform="translate(79.507 4.257)" fill="#da3931"/>
      <rect id="사각형_5294" data-name="사각형 5294" width="7.775" height="2.542" transform="translate(79.333 23.377)" fill="#da3931"/>
      <path id="패스_91894" data-name="패스 91894" d="M64.654,31.472a2.716,2.716,0,0,1-3.8,1.272,3.18,3.18,0,0,1-1.174-4.115l7.483-15.308a2.712,2.712,0,0,1,3.8-1.265,3.168,3.168,0,0,1,1.17,4.11Z" transform="translate(60.675 -7.418)" fill="#da3931"/>
      <path id="패스_91895" data-name="패스 91895" d="M70.437,31.472a2.715,2.715,0,0,0,3.8,1.272A3.173,3.173,0,0,0,75.41,28.63L67.929,13.321a2.71,2.71,0,0,0-3.8-1.265,3.17,3.17,0,0,0-1.168,4.11Z" transform="translate(64.867 -7.418)" fill="#da3931"/>
      <path id="패스_91896" data-name="패스 91896" d="M74.907,19.569a2.184,2.184,0,0,1-2.094,2.269H62.9a2.271,2.271,0,0,1,0-4.527h9.91a2.185,2.185,0,0,1,2.094,2.258" transform="translate(62.541 -0.268)" fill="#da3931"/>
    </g>
  </g>
</svg>
