<svg id="그룹_13355" data-name="그룹 13355" xmlns="http://www.w3.org/2000/svg" width="191.427" height="20.195" viewBox="0 0 191.427 20.195">
  <path id="패스_91910" data-name="패스 91910" d="M17.207,8.613c-.311.369-.61.749-.915,1.141-.24.313-.476.634-.709.952s-.484.664-.719,1l-.083.124V18.72A1.877,1.877,0,0,1,12.906,20.6H4.87A1.876,1.876,0,0,1,3,18.72V10.679A1.875,1.875,0,0,1,4.87,8.8h6.766c.508-.59.972-1.1,1.41-1.554.47-.486.958-.958,1.494-1.448H2.829A2.831,2.831,0,0,0,0,8.633V20.766A2.83,2.83,0,0,0,2.829,23.6h12.12a2.831,2.831,0,0,0,2.829-2.833V8.633a2.874,2.874,0,0,0-.07-.613c-.157.186-.323.38-.5.593" transform="translate(0 -3.404)" fill="#999"/>
  <path id="패스_91911" data-name="패스 91911" d="M19.071,3.728c-.138-.023-.279-.042-.422-.062l-.173-.022a.7.7,0,0,0-.538.144c-.174.133-.351.264-.526.393-.372.279-.756.565-1.129.861-.565.455-1.11.918-1.618,1.381-.559.508-1.063.994-1.537,1.486s-.952,1.018-1.493,1.649c-.425.495-.8.96-1.137,1.426-.442.6-.863,1.217-1.257,1.826-.267.416-.519.847-.763,1.263-.033.056-.063.111-.1.167-.187-.275-.376-.551-.569-.822a4.9,4.9,0,0,0-.819-.921,1.378,1.378,0,0,0-.833-.365,2.212,2.212,0,0,0-1.214.321,3.608,3.608,0,0,0-.869.677c-.149.156-.281.321-.409.477l-.149.184a.581.581,0,0,0-.086.611c.023.059.048.115.069.173s.053.135.081.195a.578.578,0,0,0,.37.326,3.682,3.682,0,0,1,.768.314,3.481,3.481,0,0,1,.936.757,3.878,3.878,0,0,1,.581.846c.116.236.217.477.327.735.071.172.143.342.22.513.134.3.272.6.413.895l.186.4a.479.479,0,0,0,.308.245.388.388,0,0,0,.118.017.5.5,0,0,0,.277-.084.838.838,0,0,0,.073-.054l.915-.761c.3-.249.6-.5.9-.743a1.651,1.651,0,0,0,.485-.636c.239-.535.515-1.069.756-1.526.176-.333.376-.671.569-1l.069-.116q.309-.527.63-1.041.355-.571.729-1.131c.252-.385.512-.768.774-1.147.238-.341.482-.678.726-1.012s.476-.651.721-.968c.308-.4.611-.783.93-1.158.535-.638.977-1.146,1.387-1.6a22.016,22.016,0,0,1,1.595-1.6,1.015,1.015,0,0,0,.338-.753.7.7,0,0,0-.619-.755" transform="translate(0.363 -3.636)" fill="#999"/>
  <path id="패스_91912" data-name="패스 91912" d="M89.01,25.577a2.073,2.073,0,1,1-4.146,0v-11.8a2.073,2.073,0,1,1,4.146,0Z" transform="translate(46.484 -8.544)" fill="#999"/>
  <path id="패스_91913" data-name="패스 91913" d="M95.05,25.577a2.075,2.075,0,1,1-4.15,0v-11.8a2.075,2.075,0,1,1,4.15,0Z" transform="translate(50.588 -8.544)" fill="#999"/>
  <path id="패스_91914" data-name="패스 91914" d="M96.54,16.939A1.543,1.543,0,0,1,95,18.485H87.689a1.543,1.543,0,0,1,0-3.086H95a1.544,1.544,0,0,1,1.544,1.54" transform="translate(47.363 -6.046)" fill="#999"/>
  <path id="패스_91915" data-name="패스 91915" d="M99.807,25.577a2.076,2.076,0,1,1-4.152,0v-11.8a2.076,2.076,0,1,1,4.152,0Z" transform="translate(53.821 -8.544)" fill="#999"/>
  <path id="패스_91916" data-name="패스 91916" d="M95.865,13.453a1.751,1.751,0,0,0,1.75,1.75h5.227a1.751,1.751,0,1,0,0-3.5H97.615a1.752,1.752,0,0,0-1.75,1.752" transform="translate(53.968 -8.561)" fill="#999"/>
  <path id="패스_91917" data-name="패스 91917" d="M95.705,17.1a1.75,1.75,0,0,0,1.75,1.75h5.227a1.75,1.75,0,0,0,0-3.5H97.455a1.75,1.75,0,0,0-1.75,1.75" transform="translate(53.859 -6.082)" fill="#999"/>
  <path id="패스_91918" data-name="패스 91918" d="M95.865,20.87a1.755,1.755,0,0,0,1.75,1.754h5.227a1.753,1.753,0,0,0,0-3.505H97.615a1.753,1.753,0,0,0-1.75,1.752" transform="translate(53.968 -3.514)" fill="#999"/>
  <path id="패스_91919" data-name="패스 91919" d="M125.275,24.282l-3.92-4.895,3.336-4.351a2.074,2.074,0,1,0-3.291-2.524l-2.717,3.546-1.425,1.854V13.776a2.075,2.075,0,1,0-4.15,0v11.8a2.075,2.075,0,1,0,4.15,0V20.908l4.777,5.966a2.074,2.074,0,0,0,3.239-2.591" transform="translate(65.697 -8.544)" fill="#999"/>
  <path id="패스_91920" data-name="패스 91920" d="M86.867,22.078a1.949,1.949,0,0,0-1.259.458,4.085,4.085,0,0,1-2.923,1.23,4.137,4.137,0,0,1-4.136-4.086v-.017a4.118,4.118,0,0,1,.086-.77.351.351,0,0,0,.007-.047c.01-.039.018-.079.029-.119s.015-.06.025-.092.018-.064.025-.1.023-.074.037-.114a.578.578,0,0,0,.029-.082c.015-.04.029-.082.045-.122a.594.594,0,0,1,.03-.067c.015-.042.035-.087.055-.129a4.117,4.117,0,0,1,6.692-1.208,1.953,1.953,0,0,0,2.757-2.747A8.014,8.014,0,0,0,74.852,17.99h0l0,.02c-.01.045-.02.087-.027.131-.018.094-.035.191-.052.284a.914.914,0,0,0-.013.091c-.02.114-.032.228-.044.344v0a7.039,7.039,0,0,0-.05.866,8.114,8.114,0,0,0,.173,1.655h.023a8.016,8.016,0,0,0,13.51,3.9,1.975,1.975,0,0,0,.455-1.255,1.954,1.954,0,0,0-1.953-1.953" transform="translate(39.553 -8.544)" fill="#999"/>
  <path id="패스_91921" data-name="패스 91921" d="M114.764,22.078a1.945,1.945,0,0,0-1.257.458,4.08,4.08,0,0,1-2.925,1.23,4.141,4.141,0,0,1-4.136-4.086v-.017a4.419,4.419,0,0,1,.086-.77l.01-.047c.008-.039.018-.079.029-.119s.013-.06.023-.092.02-.064.025-.1.023-.074.037-.114c.01-.023.018-.05.029-.082s.029-.082.045-.122c.008-.023.02-.044.029-.067.015-.042.035-.087.054-.129a4.144,4.144,0,0,1,3.771-2.437,4.092,4.092,0,0,1,2.925,1.228,1.954,1.954,0,0,0,3.213-1.5,1.932,1.932,0,0,0-.456-1.25,8.015,8.015,0,0,0-13.515,3.922l0,.02a.954.954,0,0,0-.027.131c-.022.094-.039.191-.054.284-.005.032-.008.06-.012.091-.02.114-.035.228-.045.344l0,0a8.206,8.206,0,0,0,.124,2.52h.027a8.015,8.015,0,0,0,13.508,3.9,1.953,1.953,0,0,0-1.5-3.208" transform="translate(58.544 -8.544)" fill="#999"/>
  <path id="패스_91922" data-name="패스 91922" d="M37.412,11.7a7.976,7.976,0,1,0,7.972,7.976A7.977,7.977,0,0,0,37.412,11.7m0,12.057a4.08,4.08,0,1,1,4.079-4.081,4.081,4.081,0,0,1-4.079,4.081" transform="translate(8.8 -8.546)" fill="#999"/>
  <path id="패스_91923" data-name="패스 91923" d="M29.9,18.279l-5.971-5.971A2.074,2.074,0,1,0,21,15.24l8.345,8.345a2.058,2.058,0,0,0,.559.389Z" transform="translate(2.624 -8.557)" fill="#999"/>
  <path id="패스_91924" data-name="패스 91924" d="M23.588,18.279l5.972-5.971a2.074,2.074,0,0,1,2.933,2.932l-8.348,8.345a2.025,2.025,0,0,1-.557.389Z" transform="translate(4.791 -8.557)" fill="#999"/>
  <path id="패스_91925" data-name="패스 91925" d="M23.588,14.623V23.6a2.074,2.074,0,1,0,4.148,0V14.623Z" transform="translate(4.791 -6.562)" fill="#999"/>
  <path id="패스_91926" data-name="패스 91926" d="M54.118,25.577a2.073,2.073,0,1,1-4.146,0v-11.8a2.073,2.073,0,1,1,4.146,0Z" transform="translate(22.761 -8.544)" fill="#999"/>
  <path id="패스_91927" data-name="패스 91927" d="M57.823,11.7H51.577v4.074h5A2.3,2.3,0,0,1,58.9,18.054v2.96a2.3,2.3,0,0,1-2.321,2.28h-5v4.358h6.246a5.177,5.177,0,0,0,5.222-5.13V16.831a5.177,5.177,0,0,0-5.222-5.13" transform="translate(23.856 -8.544)" fill="#999"/>
  <rect id="사각형_5308" data-name="사각형 5308" width="6.524" height="2.296" transform="translate(74.81 3.139)" fill="#999"/>
  <rect id="사각형_5309" data-name="사각형 5309" width="5.729" height="1.874" transform="translate(74.684 17.236)" fill="#999"/>
  <path id="패스_91928" data-name="패스 91928" d="M44.483,25.577a2.074,2.074,0,1,1-4.148,0v-11.8a2.074,2.074,0,1,1,4.148,0Z" transform="translate(16.209 -8.544)" fill="#999"/>
  <path id="패스_91929" data-name="패스 91929" d="M48.185,11.7H41.939v4.074h5a2.3,2.3,0,0,1,2.322,2.279v2.96a2.3,2.3,0,0,1-2.322,2.28h-5v4.358h6.246a5.178,5.178,0,0,0,5.222-5.13V16.831a5.178,5.178,0,0,0-5.222-5.13" transform="translate(17.302 -8.544)" fill="#999"/>
  <rect id="사각형_5310" data-name="사각형 5310" width="6.526" height="2.296" transform="translate(58.619 3.139)" fill="#999"/>
  <rect id="사각형_5311" data-name="사각형 5311" width="5.732" height="1.874" transform="translate(58.491 17.236)" fill="#999"/>
  <path id="패스_91930" data-name="패스 91930" d="M63.261,26.278a2,2,0,0,1-2.8.938,2.345,2.345,0,0,1-.866-3.034L65.11,12.9a2,2,0,0,1,2.8-.933,2.336,2.336,0,0,1,.863,3.031Z" transform="translate(29.142 -8.543)" fill="#999"/>
  <path id="패스_91931" data-name="패스 91931" d="M68.387,26.278a2,2,0,0,0,2.8.938,2.339,2.339,0,0,0,.866-3.034L66.537,12.9a2,2,0,0,0-2.8-.933,2.337,2.337,0,0,0-.861,3.031Z" transform="translate(31.371 -8.543)" fill="#999"/>
  <path id="패스_91932" data-name="패스 91932" d="M71.2,18.976a1.61,1.61,0,0,1-1.544,1.673H62.354a1.674,1.674,0,0,1,0-3.338H69.66A1.611,1.611,0,0,1,71.2,18.976" transform="translate(30.135 -4.745)" fill="#999"/>
</svg>
